 <svg class="multi-period-chart" width="691.656" height="521">
    <g>
    <path  class="feature-area"
            d="M4.956197632499646,-24.07715134924092C6.758686149939484,-24.594093516456354,8.855619246454385,-25.175714417508157,10.814931104639031,-25.15629781203577C12.774242962823678,-25.136881206563384,14.477303123628458,-24.32572498919477,16.712068781607524,-23.960651716406602C18.94683443958659,-23.595578443618432,22.124192344718104,-23.92575011612684,24.22352505251343,-22.965858175306757C26.322857760308757,-22.005966234486674,27.724979427352544,-19.959945106861934,29.308065028379474,-18.201300071486102C30.891150629406404,-16.44265503611027,31.889903472862336,-14.434311243564611,33.72203865867502,-12.413987963051765C35.5541738444877,-10.393664682538919,38.2376944652983,-8.558203924338766,40.300876143255564,-6.079360388409017C42.36405782121283,-3.6005168524792683,44.69206932962403,-0.6836588343083423,46.10112872641862,2.459073252526728C47.51018812321321,5.601805339361798,48.076422220620145,9.050933677508045,48.75523252402311,12.777032132601406C49.43404282742607,16.503130587694766,50.72589518939404,21.03873483572947,50.17399054683642,24.815663983086896C49.622085904278805,28.59259313044432,47.49293425294495,32.16181609024742,45.44380466867735,35.43860701674596C43.39467508440976,38.715397943244504,40.65233502389339,41.64593762028581,37.879213041230884,44.47640954207816C35.106091058568374,47.306881463870525,32.10971216582405,50.0890149890684,28.805072772702303,52.421438547500095C25.50043337958056,54.75386210593179,21.868281795164783,57.035844887229565,18.05137668250042,58.47095089266832C14.234471569836053,59.90605689810708,9.78886294418649,62.583102214167354,5.903642096716111,61.03207458013264C2.0184212492457307,59.48104694609792,-3.6236599313943456,57.29742685017975,-5.259948402321864,49.16478508846002C-6.896236873249383,41.0321433267403,-3.7406189396829093,18.564390688911498,-3.9140887288490007,12.236224009814281C-4.087558518015093,5.908057330717065,-5.539375723392544,11.60892699425608,-6.300767137318414,11.195785013876723C-7.062158551244284,10.782643033497365,-7.729500154196144,10.246447815824757,-8.482437212404223,9.757372127538135C-9.235374270612303,9.268296439251513,-10.08798430351115,8.854036170002521,-10.81838948656689,8.261330884156987C-11.54879466962263,7.668625598311452,-12.335151902800996,6.991927881125026,-12.864868310738661,6.2011404124649285C-13.394584718676326,5.410352943804831,-13.922042784002906,4.454351895484101,-13.99668793419288,3.5166060721964034C-14.071333084382852,2.578860248908706,-13.531659304801876,1.5016205546978436,-13.312739211878498,0.5746654727387432C-13.09381911895512,-0.3522896092203571,-12.89171469095661,-1.186064579248963,-12.683167376652609,-2.0451244195581983C-12.474620062348608,-2.9041842598674337,-11.81634346685603,-3.422153910451488,-12.06145532605449,-4.579693569116669C-12.306567185252952,-5.73723322778185,-13.203316332148962,-6.888976948440401,-14.153838531843382,-8.990362371549283C-15.104360731537803,-11.091747794658165,-17.61634530523742,-15.012805232612639,-17.764588524221015,-17.18800610776996C-17.91283174320461,-19.363206982927284,-16.17310756707446,-20.52527618877687,-15.043297845744958,-22.041567622493222C-13.913488124415453,-23.557859056209573,-12.546220059395715,-25.111490973528216,-10.985730196243988,-26.285754710068073C-9.425240333092262,-27.46001844660793,-7.511313699541931,-29.792335025286505,-5.6803586668346,-29.08715004173235C-3.8494036341272686,-28.381965058178203,-1.772759383222374,-22.889644590825075,0,-22.05464480874317C1.772759383222374,-21.219645026661265,3.1537091150598076,-23.56020918202549,4.956197632499646,-24.07715134924092M-4.9486884752812905,-11.840816138217104C-5.74446727256412,-11.508232529366328,-6.522017073444444,-11.08610001259346,-7.234398482795542,-10.599902029574142C-7.9467798921466395,-10.113704046554824,-8.623251873130526,-9.543471450582144,-9.222976931387874,-8.923628240101195C-9.822701989645223,-8.303785029620245,-10.370312061322258,-7.60887297477883,-10.832748832339638,-6.880842766688443C-11.295185603357018,-6.152812558598056,-11.69144229879102,-5.361762505889803,-11.997597557492153,-4.555446991558872C-12.303752816193285,-3.7491314772279423,-12.532381061523255,-2.894433472080297,-12.669680384546428,-2.042949680702862C-12.806979707569601,-1.1914658893254275,-12.858589272618133,-0.3082241288988016,-12.821393495631188,0.5534557567057364C-12.784197718644243,1.4151356423102746,-12.656668892898484,2.2906446103796667,-12.446505722624755,3.1271296329243667C-12.236342552351026,3.9636146554690668,-11.934913205813773,4.7954318851608715,-11.560414473988809,5.572365891973938C-11.185915742163845,6.349299898787004,-10.722966195307412,7.10326095323972,-10.199513331674966,7.788733673802764C-9.67606046804252,8.474206394365808,-9.070605006696866,9.119344549254148,-8.419697292194133,9.685202215352204C-7.7687895776914,10.25105988145026,-7.045695497391202,10.760877991761031,-6.2940670446585685,11.183879670391104C-5.542438591925935,11.606881349021176,-4.731404847164492,11.960440141054756,-3.909926575798332,12.223212287132641C-3.088448304432173,12.485984433210527,-2.2227857117883936,12.668762523427258,-1.3651974164616123,12.760512546858415C-0.5076091211348311,12.852262570289572,0.3771277841712015,12.856752888265827,1.235603196162355,12.773712427719587C2.0940786081535085,12.690671967173348,2.961551869823907,12.516690086355421,3.785655055485309,12.262269783580974C4.609758241146711,12.007849480806527,5.42433895607693,11.662541193286813,6.180222310130765,11.2471906110729C6.9361056641846,10.831840028858988,7.664337334468067,10.329387853062954,8.320955179808317,9.7701662902975C8.977573025148567,9.210944727532045,9.58954568495161,8.5719854031462,10.119929382172268,7.891861234480171C10.650313079392927,7.211737065814141,11.120891758495514,6.46251396063112,11.503257363132263,5.68942127830132C11.885622967769013,4.91632859597152,12.195480036258349,4.08761383703862,12.414123009992764,3.253305140501371C12.632765983727179,2.4189964439641223,12.769174977333687,1.5448270433161242,12.815115205538747,0.6835690990778267C12.861055433743807,-0.1776888451604708,12.818413755787518,-1.0614089602801262,12.68976437922313,-1.9142425249284143C12.561115002658742,-2.7670760895767024,12.341174034166883,-3.624050724525068,12.043218946152416,-4.433432288811902C11.74526385813795,-5.2428138530987365,11.35705702504002,-6.037845304867847,10.902033851136327,-6.77053191064942C10.447010677232635,-7.503218516430993,9.906482429060524,-8.203653215381587,9.31307990273026,-8.829551923501338C8.719677376399996,-9.455450631621089,8.04902831509769,-10.032520290449515,7.341618693154745,-10.525924159367921C6.6342090712118,-11.019328028286328,5.860984126955339,-11.449331214490353,5.068622171072593,-11.789975137011774C4.276260215189847,-12.130619059533196,3.4322173197036996,-12.395894661776193,2.5874469578582677,-12.569787694496453C1.7426765960128356,-12.743680727216713,0.8411954428261386,-12.829064001969611,0,-12.833333333333334C-0.8411954428261386,-12.837602664697057,-1.634944286551682,-12.760823215198165,-2.4597256990985636,-12.595403682678795C-3.2845071116454454,-12.429984150159424,-4.152909677998461,-12.17339974706788,-4.9486884752812905,-11.840816138217104">
            <title>Jan</title>
          </path>
    </g>
 </svg>